<svg width="21.169922" height="22.934174" viewBox="0 0 21.1699 22.9342" fill="none" xmlns="http://www.w3.org/2000/svg" xmlns:xlink="http://www.w3.org/1999/xlink">
	<desc>
			Created with Pixso.
	</desc>
	<defs/>
	<path id="monetization_on" d="M9.63232 19.494L11.4846 19.494L11.4846 18.0607C12.3667 17.8886 13.1255 17.516 13.7605 16.9426C14.3955 16.3693 14.7131 15.5188 14.7131 14.3912C14.7131 13.5885 14.5015 12.8527 14.0781 12.1838C13.6545 11.5149 12.8079 10.9319 11.5376 10.4351C10.4792 10.0528 9.74707 9.71835 9.34131 9.43167C8.93555 9.14499 8.73267 8.7532 8.73267 8.25629C8.73267 7.7594 8.89575 7.36761 9.22217 7.08093C9.54858 6.79425 10.0205 6.65091 10.6379 6.65091C11.2024 6.65091 11.6436 6.79901 11.9609 7.09525C12.2786 7.39148 12.5081 7.7594 12.6492 8.19897L14.3428 7.45361C14.1487 6.7847 13.7913 6.20178 13.271 5.70486C12.7505 5.20798 12.1729 4.93085 11.5376 4.8735L11.5376 3.44012L9.6853 3.44012L9.6853 4.8735C8.80322 5.08374 8.11523 5.50421 7.62109 6.13489C7.1272 6.76559 6.88037 7.47272 6.88037 8.25629C6.88037 9.15454 7.1228 9.8808 7.60791 10.4351C8.09302 10.9893 8.8562 11.4671 9.89697 11.8684C11.0083 12.308 11.7803 12.6998 12.2124 13.0438C12.6448 13.3878 12.8608 13.8369 12.8608 14.3912C12.8608 15.0219 12.6536 15.4854 12.239 15.7816C11.8242 16.0778 11.3259 16.2259 10.7439 16.2259C10.1616 16.2259 9.64551 16.03 9.1958 15.6382C8.74585 15.2465 8.41504 14.6588 8.20337 13.8752L6.45679 14.6205C6.70386 15.5379 7.08765 16.2785 7.60791 16.8423C8.12842 17.4061 8.80322 17.7931 9.63232 18.0033L9.63232 19.494ZM10.585 22.9342C9.12085 22.9342 7.74463 22.6331 6.45679 22.0311C5.16895 21.4291 4.04883 20.6121 3.09619 19.58C2.14355 18.548 1.38916 17.3344 0.833496 15.9392C0.277832 14.5441 0 13.0534 0 11.4671C0 9.8808 0.277832 8.39008 0.833496 6.99493C1.38916 5.59976 2.14355 4.38617 3.09619 3.35413C4.04883 2.32208 5.16895 1.50507 6.45679 0.903046C7.74463 0.301025 9.12085 0 10.585 0C12.0493 0 13.4253 0.301025 14.7131 0.903046C16.001 1.50507 17.1213 2.32208 18.074 3.35413C19.0266 4.38617 19.7808 5.59976 20.3364 6.99493C20.8921 8.39008 21.1699 9.8808 21.1699 11.4671C21.1699 13.0534 20.8921 14.5441 20.3364 15.9392C19.7808 17.3344 19.0266 18.548 18.074 19.58C17.1213 20.6121 16.001 21.4291 14.7131 22.0311C13.4253 22.6331 12.0493 22.9342 10.585 22.9342Z" fill="#FFFFFF" fill-opacity="1.000000" fill-rule="nonzero"/>
</svg>
